<?xml version="1.0" encoding="utf-8"?>
<!-- Generator: Adobe Illustrator 16.0.0, SVG Export Plug-In . SVG Version: 6.00 Build 0)  -->
<!DOCTYPE svg PUBLIC "-//W3C//DTD SVG 1.1//EN" "http://www.w3.org/Graphics/SVG/1.1/DTD/svg11.dtd">
<svg version="1.1" xmlns="http://www.w3.org/2000/svg" xmlns:xlink="http://www.w3.org/1999/xlink" x="0px" y="0px" width="121px"
	 height="122px" viewBox="0 0 121 122" style="enable-background:new 0 0 121 122;" xml:space="preserve">
<style type="text/css">
<![CDATA[
	.st0{fill:none;stroke:#FFFFFF;stroke-width:6;stroke-miterlimit:10;}
	.st1{fill:#FFFFFF;}
	.st2{display:none;}
]]>
</style>
<g id="Layer_1" class="st2">
	
		<image style="display:inline;overflow:visible;" width="3333" height="4490" xlink:href="phone.png"  transform="matrix(1.778311e-02 0 0 1.778311e-02 30.5 21)">
	</image>
</g>
<g id="Layer_2">
	<g>
		<path class="st1" d="M48.7,44.5l-1-23.3c0,0-16.8,0.2-16.8,17.5S36.6,70,36.6,70s11.5,19.4,25.5,28.5c10,6.5,24-2.3,24-2.3
			L68.2,81.6c0,0-5.3,3.8-9.7-2.2L44.6,53C44.6,53,43.4,46,48.7,44.5z"/>
		<path class="st1" d="M50.7,43.3l-0.5-21.8c0,0,4.7,0.1,6,3.1s0.5,15.8,0.5,15.8S54.6,44.4,50.7,43.3z"/>
		<path class="st1" d="M69.7,79.8l18.7,14.8c0,0,4-6,0-8.4S77,77.7,77,77.7S74.8,75.5,69.7,79.8z"/>
	</g>
	<circle class="st0" cx="60.5" cy="61" r="55.2"/>
</g>
</svg>
